<?xml version="1.0" standalone="no"?>
<!DOCTYPE svg PUBLIC "-//W3C//DTD SVG 20010904//EN"
 "http://www.w3.org/TR/2001/REC-SVG-20010904/DTD/svg10.dtd">
<svg version="1.0" xmlns="http://www.w3.org/2000/svg"
 width="500.000000pt" height="500.000000pt" viewBox="0 0 500.000000 500.000000"
 preserveAspectRatio="xMidYMid meet">
<metadata>
Created by potrace 1.14, written by Peter Selinger 2001-2017
</metadata>
<g transform="translate(0.000000,500.000000) scale(0.100000,-0.100000)"
fill="#000000" stroke="none">
<path d="M0 2550 l0 -2450 2500 0 2500 0 0 2450 0 2450 -2500 0 -2500 0 0
-2450z m17 2348 c-3 -7 -5 -2 -5 12 0 14 2 19 5 13 2 -7 2 -19 0 -25z m4923
-2380 l0 -2412 -27 25 c-70 62 -116 91 -151 95 -20 1 -64 6 -97 9 -33 4 -82 8
-110 10 -63 5 -2557 6 -3510 2 -396 -2 -731 -7 -745 -11 -14 -4 -35 -9 -47
-11 -11 -2 -30 -6 -42 -10 l-21 -6 0 2303 0 2303 2317 2 2317 2 55 55 c31 31
57 56 58 56 2 0 3 -1085 3 -2412z"/>
<path d="M527 4525 c52 -52 97 -95 99 -95 2 0 4 43 4 95 l0 95 -99 0 -100 0
96 -95z"/>
<path d="M650 4525 l0 -95 115 0 115 0 0 95 0 95 -115 0 -115 0 0 -95z"/>
<path d="M896 4604 c-3 -9 -6 -111 -6 -228 l0 -212 38 -37 c20 -20 40 -35 44
-34 3 1 10 -2 15 -7 5 -6 2 -6 -7 -1 -13 8 -13 6 -2 -8 8 -9 17 -16 20 -15 17
3 42 -16 73 -55 18 -23 24 -35 14 -27 -20 14 -20 14 -1 -8 11 -12 21 -22 23
-22 1 0 3 151 3 335 l0 335 -104 0 c-85 0 -105 -3 -110 -16z"/>
<path d="M1130 4280 l0 -340 118 0 118 0 -3 88 c-2 48 -5 104 -6 125 -1 20 1
37 5 37 5 0 8 97 8 215 l0 215 -120 0 -120 0 0 -340z"/>
<path d="M1390 4518 c0 -57 -3 -210 -6 -340 l-6 -238 116 0 116 0 0 340 0 340
-110 0 -110 0 0 -102z m158 -335 c-26 -2 -71 -2 -100 0 -29 2 -8 3 47 3 55 0
79 -1 53 -3z"/>
<path d="M1626 4598 c-11 -44 -7 -176 7 -181 10 -4 10 -6 0 -6 -10 -1 -13 -78
-13 -351 l0 -350 115 0 115 0 0 234 0 235 -47 4 -48 3 48 2 47 2 0 215 0 215
-109 0 c-104 0 -109 -1 -115 -22z"/>
<path d="M1870 4165 l0 -455 110 0 110 0 0 455 0 455 -110 0 -109 0 -1 -455z"/>
<path d="M2120 4257 c0 -200 -3 -405 -6 -455 l-7 -92 112 0 111 0 0 455 0 455
-105 0 -105 0 0 -363z"/>
<path d="M2350 4165 l0 -455 110 0 110 0 0 235 0 234 -102 4 -103 3 103 2 102
2 0 215 0 215 -110 0 -110 0 0 -455z"/>
<path d="M2590 4165 l0 -455 110 0 110 0 0 455 0 455 -110 0 -110 0 0 -455z
m37 259 c-3 -3 -12 -4 -19 -1 -8 3 -5 6 6 6 11 1 17 -2 13 -5z"/>
<path d="M2830 4525 l0 -94 68 -4 67 -3 -67 -2 -68 -2 0 -355 0 -355 110 0
110 0 0 455 0 455 -110 0 -110 0 0 -95z"/>
<path d="M3070 4526 l0 -95 38 -4 37 -4 -37 -1 -38 -2 0 -109 c0 -78 4 -111
13 -114 10 -4 10 -6 0 -6 -10 -1 -13 -56 -13 -241 l0 -240 108 0 109 0 -1 453
-1 452 -107 3 -108 3 0 -95z"/>
<path d="M3300 4526 l0 -95 28 -4 27 -4 -27 -2 -28 -1 0 -354 0 -354 23 -6
c12 -3 61 -6 110 -6 l87 0 0 460 0 460 -110 0 -110 0 0 -94z"/>
<path d="M3540 4281 l0 -340 37 -4 38 -4 -37 -1 -38 -2 0 -115 0 -115 55 0
c30 0 55 5 55 10 0 6 6 10 13 10 7 0 30 17 50 38 l37 38 0 412 0 412 -105 0
-104 0 -1 -339z"/>
<path d="M3770 4525 l0 -95 105 0 105 0 0 95 0 95 -105 0 -105 0 0 -95z"/>
<path d="M4000 4525 l0 -95 100 0 100 0 0 95 0 95 -100 0 -100 0 0 -95z"/>
<path d="M4220 4525 l0 -95 94 0 c64 0 97 4 104 13 6 7 12 49 14 92 l3 80
-107 3 -108 3 0 -96z"/>
<path d="M4454 4606 c-3 -7 -4 -38 -2 -68 l3 -56 75 69 75 69 -73 0 c-52 0
-74 -4 -78 -14z"/>
<path d="M4603 4571 c-32 -27 -78 -69 -103 -95 l-44 -46 112 0 112 0 0 95 c0
53 -4 95 -9 95 -6 0 -36 -22 -68 -49z"/>
<path d="M410 4517 l0 -87 85 0 84 0 -37 38 c-21 20 -59 59 -85 87 l-47 50 0
-88z"/>
<path d="M410 4055 l0 -355 115 2 114 3 1 323 c0 403 7 382 -136 382 l-94 0 0
-355z"/>
<path d="M660 4397 c0 -11 98 -111 188 -192 l32 -29 0 117 0 117 -110 0 c-82
0 -110 -3 -110 -13z"/>
<path d="M3768 4218 c-2 -106 -2 -240 0 -297 l3 -105 104 104 105 105 0 192 0
193 -105 0 -104 0 -3 -192z"/>
<path d="M3995 4225 c0 -102 2 -185 5 -185 3 0 49 42 103 93 107 101 102 89
99 220 l-2 57 -102 0 -103 0 0 -185z"/>
<path d="M4220 4335 c0 -41 2 -75 4 -75 2 0 39 34 82 75 l79 75 -82 0 -83 0 0
-75z"/>
<path d="M4328 4309 l-108 -101 0 -254 0 -254 110 0 110 0 0 355 c0 195 -1
355 -2 355 -2 0 -51 -46 -110 -101z"/>
<path d="M4451 4055 l-1 -355 115 0 115 0 0 355 0 355 -114 0 -115 0 0 -355z"/>
<path d="M650 4148 l0 -207 68 -4 67 -3 -67 -2 -68 -2 0 -115 0 -115 115 0
115 0 0 57 c0 38 -5 62 -17 75 -19 22 -25 108 -7 108 18 0 24 25 24 106 l0 74
-115 118 -114 117 -1 -207z"/>
<path d="M4093 4079 l-93 -90 0 -145 0 -144 105 0 105 0 0 213 c0 201 -4 257
-19 257 -3 0 -48 -41 -98 -91z"/>
<path d="M890 4048 l0 -63 31 32 31 31 -23 31 c-12 17 -26 31 -31 31 -4 0 -8
-28 -8 -62z"/>
<path d="M931 3973 c-43 -48 -57 -82 -47 -108 7 -20 53 -19 65 2 7 13 11 3 15
-42 26 -237 58 -410 81 -434 14 -15 51 -7 58 12 2 7 -9 75 -24 152 -15 79 -32
207 -37 292 -6 83 -13 157 -17 162 -15 25 -54 10 -94 -36z"/>
<path d="M3873 3868 c-90 -88 -103 -106 -103 -135 l0 -33 105 0 105 0 0 135
c0 74 -1 135 -2 135 -2 0 -49 -46 -105 -102z"/>
<path d="M1074 3850 c10 -119 16 -150 32 -150 11 0 14 16 14 63 -1 77 -13 135
-35 156 -16 15 -17 11 -11 -69z"/>
<path d="M1140 3918 c0 -7 40 -52 88 -100 117 -115 126 -114 130 15 l3 97
-111 0 c-80 0 -110 -3 -110 -12z"/>
<path d="M1380 3836 c0 -52 3 -101 6 -110 5 -13 25 -16 115 -16 l109 0 0 110
0 110 -115 0 -115 0 0 -94z"/>
<path d="M1136 3790 c3 -47 8 -86 9 -88 1 -2 37 -2 79 0 l77 3 -86 85 -86 85
7 -85z"/>
<path d="M890 3755 c0 -52 1 -55 25 -55 20 0 25 5 25 24 0 52 -12 86 -31 86
-16 0 -19 -8 -19 -55z"/>
<path d="M3741 3747 c-6 -8 -7 -18 -3 -22 4 -5 2 -5 -4 -2 -7 4 -17 0 -24 -8
-10 -13 -8 -15 13 -15 20 0 26 6 29 30 5 34 5 35 -11 17z"/>
<path d="M410 3065 l0 -605 115 0 115 0 0 605 0 605 -115 0 -115 0 0 -605z"/>
<path d="M658 3433 c1 -131 2 -403 2 -605 l0 -368 110 0 110 0 0 605 0 605
-112 0 -113 0 3 -237z"/>
<path d="M900 3068 l0 -603 110 3 110 3 0 349 c0 324 -1 349 -17 353 -17 4
-17 5 0 6 15 1 17 12 17 90 l0 89 -43 -5 c-33 -4 -46 -1 -60 15 -17 19 -67
225 -67 277 0 20 -5 25 -25 25 l-25 0 0 -602z"/>
<path d="M1101 3638 c1 -18 5 -46 9 -63 6 -24 8 -17 9 33 0 35 -3 62 -9 62 -5
0 -9 -15 -9 -32z"/>
<path d="M1131 3570 c1 -55 5 -100 9 -100 4 0 3 -24 -1 -52 -5 -29 -8 -95 -6
-145 2 -85 4 -93 22 -94 17 -1 17 -2 3 -6 -17 -4 -18 -30 -18 -356 l0 -352
110 3 110 3 2 457 c3 584 2 707 -5 726 -5 13 -25 16 -117 16 l-111 0 2 -100z"/>
<path d="M1418 3656 c-16 -12 -11 -19 51 -79 53 -52 73 -65 92 -62 12 3 26 -1
30 -7 4 -6 9 27 11 75 l3 87 -85 0 c-54 -1 -91 -5 -102 -14z"/>
<path d="M1630 3555 l0 -115 30 0 c17 0 30 4 30 8 0 5 20 7 44 5 25 -3 61 0
80 7 l36 12 0 99 0 99 -110 0 -110 0 0 -115z"/>
<path d="M1870 3563 l0 -108 110 0 110 0 0 108 0 107 -110 0 -110 0 0 -107z"/>
<path d="M2120 3554 c0 -82 3 -113 11 -108 6 3 39 6 73 5 33 0 68 3 75 8 9 6
22 6 33 0 17 -9 18 -3 18 101 l0 110 -105 0 -105 0 0 -116z"/>
<path d="M2352 3563 l3 -108 50 -2 c28 0 76 1 108 4 l57 5 0 104 0 104 -111 0
-110 0 3 -107z"/>
<path d="M2590 3563 l0 -108 110 0 110 0 0 108 0 107 -110 0 -110 0 0 -107z"/>
<path d="M2840 3565 c0 -102 1 -105 23 -106 12 -1 59 -2 104 -3 l83 -1 0 108
0 107 -105 0 -105 0 0 -105z"/>
<path d="M3072 3570 c2 -64 7 -103 15 -108 15 -10 175 -8 191 2 13 8 15 71 6
154 l-7 52 -104 0 -105 0 4 -100z"/>
<path d="M3310 3555 l0 -115 44 0 c39 0 48 4 67 33 13 17 40 47 61 66 34 30
38 38 38 82 l0 49 -105 0 -105 0 0 -115z"/>
<path d="M3540 3635 c0 -19 1 -35 3 -35 1 0 17 16 36 35 l33 35 -36 0 c-34 0
-36 -2 -36 -35z"/>
<path d="M3602 3612 l-62 -58 0 -177 0 -177 105 0 105 0 0 235 0 235 -43 0
c-38 0 -49 -6 -105 -58z"/>
<path d="M3770 3433 c0 -131 3 -336 7 -457 l6 -219 20 39 c31 61 83 120 138
156 l51 33 -6 44 c-3 24 -6 178 -6 342 l0 299 -105 0 -105 0 0 -237z"/>
<path d="M4000 3330 c0 -187 2 -340 4 -340 2 0 22 7 45 14 22 8 68 18 101 22
l60 7 0 318 0 319 -105 0 -105 0 0 -340z"/>
<path d="M4222 3349 l3 -322 54 -14 c44 -11 98 -32 154 -61 4 -2 7 159 7 357
l0 361 -110 0 -110 0 2 -321z"/>
<path d="M4457 3483 c-3 -104 -3 -270 0 -371 l6 -182 34 -36 c98 -105 144
-274 107 -400 -5 -19 -1 -22 35 -26 l41 -4 0 603 0 603 -108 0 -109 0 -6 -187z"/>
<path d="M1390 3533 c0 -61 4 -85 13 -89 8 -3 47 -4 88 -2 l74 3 -87 86 -88
85 0 -83z"/>
<path d="M3475 3490 l-39 -40 42 0 42 0 0 40 c0 22 -1 40 -3 40 -2 0 -21 -18
-42 -40z"/>
<path d="M3464 3421 c-44 -5 -59 -13 -103 -54 -50 -47 -51 -49 -51 -107 l0
-60 105 0 105 0 0 115 c0 63 -1 114 -2 113 -2 -1 -26 -4 -54 -7z"/>
<path d="M1397 3330 c0 -47 1 -95 2 -107 1 -22 4 -23 106 -23 l105 0 0 68 c0
37 -3 84 -6 104 l-6 37 -102 3 -101 3 2 -85z"/>
<path d="M1693 3413 c-24 -2 -43 -9 -43 -16 0 -16 142 -157 158 -157 8 0 12 6
8 15 -7 20 4 19 20 -2 11 -15 13 -5 14 75 l0 92 -57 -2 c-32 -1 -77 -3 -100
-5z"/>
<path d="M1870 3311 l0 -109 110 -1 110 -2 0 111 0 110 -110 0 -110 0 0 -109z"/>
<path d="M2120 3310 l0 -110 105 0 105 0 0 110 0 110 -105 0 -105 0 0 -110z"/>
<path d="M2358 3310 l3 -110 105 0 104 0 0 110 0 110 -107 0 -108 0 3 -110z"/>
<path d="M2594 3310 l-1 -110 109 0 108 0 0 110 0 110 -107 0 -108 0 -1 -110z"/>
<path d="M2840 3333 c0 -139 -5 -133 110 -133 l98 0 1 110 2 110 -106 0 -105
0 0 -87z"/>
<path d="M3079 3343 c0 -43 -2 -93 -3 -110 -4 -32 -3 -33 36 -33 35 0 45 6
101 66 45 48 63 76 64 98 2 17 5 37 8 44 3 9 -21 12 -100 12 l-105 0 -1 -77z"/>
<path d="M3310 3394 l0 -25 30 21 c17 12 30 23 30 26 0 2 -13 4 -30 4 -26 0
-30 -4 -30 -26z"/>
<path d="M1637 3286 c3 -45 7 -82 8 -84 1 -2 36 -2 76 0 l74 3 -82 81 -82 80
6 -80z"/>
<path d="M3233 3250 l-52 -50 49 0 48 0 4 50 c1 28 3 50 3 50 0 0 -23 -23 -52
-50z"/>
<path d="M1815 3220 c3 -5 14 -10 23 -10 15 0 15 2 2 10 -20 13 -33 13 -25 0z"/>
<path d="M3122 3127 c-51 -51 -52 -53 -52 -109 l0 -58 105 0 105 0 0 110 0
110 -52 0 c-50 -1 -56 -4 -106 -53z"/>
<path d="M3634 3173 l-92 -4 -1 -104 -2 -105 106 0 105 0 0 110 c0 82 -3 109
-12 108 -7 -1 -54 -4 -104 -5z"/>
<path d="M1398 3065 l3 -105 105 0 104 0 0 105 0 105 -107 0 -108 0 3 -105z"/>
<path d="M1640 3065 l0 -105 105 0 106 0 -3 103 -3 102 -102 3 -103 3 0 -106z"/>
<path d="M1890 3161 c0 -5 9 -7 20 -4 11 3 20 1 20 -4 0 -6 23 -9 55 -7 53 3
81 -10 55 -26 -7 -4 -10 -12 -6 -18 3 -6 -2 -15 -11 -21 -16 -9 -16 -10 4 -11
12 0 23 3 26 8 2 4 3 2 1 -4 -1 -6 2 -16 7 -21 6 -6 11 -26 12 -46 1 -19 5
-33 10 -30 4 2 7 47 7 99 l0 94 -100 0 c-55 0 -100 -4 -100 -9z"/>
<path d="M2121 3058 c0 -62 2 -108 5 -103 2 6 44 9 104 7 l100 -3 0 105 0 106
-105 0 -105 0 1 -112z"/>
<path d="M2360 3065 l0 -105 104 0 104 0 1 105 2 105 -106 0 -105 0 0 -105z"/>
<path d="M2600 3065 l0 -105 105 0 105 0 0 105 0 105 -105 0 -105 0 0 -105z"/>
<path d="M2841 3065 l4 -105 42 0 c24 0 43 5 43 10 0 14 107 129 114 122 3 -3
6 1 6 9 0 8 -5 20 -11 26 -8 8 -8 13 0 17 30 19 2 26 -95 26 l-106 0 3 -105z"/>
<path d="M3070 3143 l0 -26 25 23 c14 13 25 25 25 27 0 2 -11 3 -25 3 -20 0
-25 -5 -25 -27z"/>
<path d="M3310 3065 l0 -105 105 0 105 0 0 105 0 105 -105 0 -105 0 0 -105z"/>
<path d="M1875 3050 c4 -47 9 -86 10 -88 1 -2 35 -2 74 0 l72 3 -56 58 c-61
63 -71 63 -25 -1 17 -23 30 -43 30 -45 0 -2 -20 -3 -44 -3 l-44 1 -4 53 c-2
34 1 51 8 48 18 -7 12 23 -9 41 -18 17 -19 16 -12 -67z"/>
<path d="M1975 3060 c3 -5 8 -10 11 -10 2 0 4 5 4 10 0 6 -5 10 -11 10 -5 0
-7 -4 -4 -10z"/>
<path d="M3022 3037 c-25 -27 -28 -39 -8 -35 8 2 15 0 15 -4 3 -26 -2 -29 -33
-27 -19 2 -38 0 -43 -4 -4 -5 16 -7 45 -6 l52 3 0 48 c0 26 -1 48 -3 48 -2 0
-13 -10 -25 -23z"/>
<path d="M2005 3030 c3 -5 8 -10 11 -10 2 0 4 5 4 10 0 6 -5 10 -11 10 -5 0
-7 -4 -4 -10z"/>
<path d="M3630 2933 l-86 -4 -2 -216 c-1 -120 1 -225 4 -235 5 -16 18 -18 105
-18 l99 0 0 240 c0 223 -1 240 -17 238 -10 -1 -56 -4 -103 -5z"/>
<path d="M1401 2819 l-2 -111 106 4 105 3 0 108 0 107 -104 0 -104 0 -1 -111z"/>
<path d="M1640 2825 l0 -105 105 0 105 0 0 105 0 105 -105 0 -105 0 0 -105z"/>
<path d="M1884 2921 c-2 -2 -4 -49 -4 -103 l0 -98 38 -2 c92 -5 145 2 158 19
19 26 19 167 0 183 -14 11 -181 12 -192 1z m24 -26 c-3 -3 -9 2 -12 12 -6 14
-5 15 5 6 7 -7 10 -15 7 -18z"/>
<path d="M2153 2888 c20 -24 40 -42 46 -40 6 1 10 -2 9 -8 -3 -10 100 -120
114 -120 4 0 8 47 8 105 l0 105 -106 0 -107 0 36 -42z"/>
<path d="M2360 2833 c0 -60 4 -93 9 -84 7 11 10 9 16 -8 6 -19 14 -21 80 -21
109 0 105 -4 105 111 l0 99 -105 0 -105 0 0 -97z"/>
<path d="M2600 2821 l0 -110 43 2 c25 1 42 7 43 15 1 6 2 17 3 24 0 6 4 9 7 6
3 -4 29 17 59 45 42 41 54 60 57 90 l4 37 -108 0 -108 0 0 -109z"/>
<path d="M2840 2908 c0 -20 1 -21 20 -3 11 10 20 20 20 22 0 1 -9 3 -20 3 -14
0 -20 -7 -20 -22z"/>
<path d="M2908 2903 c-47 -37 -69 -79 -71 -139 l-2 -49 108 -2 107 -1 0 109 0
109 -53 0 c-43 0 -61 -5 -89 -27z"/>
<path d="M3080 2913 c0 -10 -3 -48 -6 -85 -4 -37 -4 -79 0 -93 l7 -26 102 3
102 3 0 107 0 108 -102 0 c-91 0 -103 -2 -103 -17z"/>
<path d="M3310 2820 l0 -110 55 0 c30 0 55 -4 55 -10 0 -5 -25 -10 -55 -10
l-55 0 0 -115 0 -115 105 3 105 2 0 233 0 232 -105 0 -105 0 0 -110z"/>
<path d="M4171 2876 c-36 -13 -91 -68 -73 -74 6 -2 24 4 41 12 16 9 39 16 51
16 16 0 20 6 20 30 0 17 -1 30 -2 29 -2 0 -18 -6 -37 -13z"/>
<path d="M4220 2860 c0 -23 5 -31 25 -36 30 -7 55 -39 55 -69 0 -12 -16 -47
-35 -79 -28 -48 -35 -68 -35 -112 0 -30 4 -54 8 -54 15 0 128 123 147 160 10
19 18 54 18 78 0 56 -46 106 -117 127 -66 20 -66 20 -66 -15z"/>
<path d="M2120 2797 l0 -83 82 -1 82 -1 -25 22 c-13 11 -50 49 -82 83 l-57 63
0 -83z m34 17 c9 -3 16 -15 16 -25 0 -16 -2 -18 -14 -7 -8 7 -12 16 -10 20 2
3 -2 9 -8 11 -7 3 -10 6 -6 6 3 1 13 -2 22 -5z"/>
<path d="M2762 2765 c-34 -36 -38 -45 -23 -45 10 0 21 9 24 20 7 27 25 25 37
-2 7 -19 9 -14 9 25 1 26 0 47 -2 47 -1 0 -22 -20 -45 -45z"/>
<path d="M1569 2685 c-3 -2 -45 -5 -95 -6 -49 -1 -84 -4 -78 -6 7 -2 8 -24 2
-70 -5 -37 -7 -82 -3 -100 l6 -32 104 -3 105 -3 0 113 c0 102 -2 112 -18 112
-10 0 -21 -2 -23 -5z"/>
<path d="M2077 2684 c-4 -4 -38 -7 -77 -7 -38 0 -70 -4 -70 -8 0 -5 -9 -9 -21
-9 -11 0 -17 5 -14 10 3 6 1 10 -4 10 -7 0 -11 -38 -11 -105 l0 -105 105 0
105 0 0 110 c0 110 -1 116 -13 104z"/>
<path d="M2590 2663 l0 -26 25 23 c14 13 25 25 25 27 0 2 -11 3 -25 3 -20 0
-25 -5 -25 -27z"/>
<path d="M2646 2648 c-20 -23 -33 -44 -29 -47 4 -3 9 -13 11 -21 3 -12 1 -13
-9 -2 -23 22 -29 13 -29 -48 l0 -60 63 -1 c34 0 83 -1 110 -2 l47 -3 0 113 0
113 -64 0 c-62 0 -64 -1 -100 -42z"/>
<path d="M2840 2577 l0 -112 105 0 105 -1 0 113 0 113 -105 0 -105 0 0 -113z"/>
<path d="M3078 2575 l3 -115 105 0 106 0 -4 115 -3 115 -105 0 -105 0 3 -115z"/>
<path d="M1640 2575 l0 -105 105 0 105 0 0 105 0 105 -105 0 -105 0 0 -105z"/>
<path d="M2120 2572 l0 -108 68 1 c116 3 124 4 117 18 -4 6 1 3 9 -7 15 -18
16 -13 16 75 -1 127 -3 129 -119 129 l-91 0 0 -108z"/>
<path d="M2385 2670 c3 -5 1 -10 -6 -10 -8 0 -8 -4 1 -15 15 -18 35 -20 24 -3
-4 7 -3 8 4 4 6 -4 9 -13 5 -21 -3 -8 0 -15 7 -15 6 0 8 -4 5 -10 -3 -5 0 -10
9 -10 8 0 16 -6 19 -12 3 -10 7 -10 19 0 11 9 18 10 23 2 6 -9 0 -14 -17 -11
-7 1 -4 -26 4 -35 4 -3 11 4 18 15 6 12 15 19 19 16 5 -2 14 2 21 10 7 8 9 15
5 15 -4 0 -2 6 4 13 6 8 8 16 6 19 -3 3 -1 17 4 32 l11 26 -96 0 c-61 0 -93
-4 -89 -10z m149 -78 c3 -5 -1 -9 -9 -9 -8 0 -15 4 -15 9 0 4 4 8 9 8 6 0 12
-4 15 -8z"/>
<path d="M2362 2548 l3 -73 67 -1 c67 -1 68 0 50 20 -25 29 -64 66 -70 66 -3
0 -11 -8 -19 -17 -13 -17 -14 -16 -10 4 3 12 0 24 -7 27 -6 3 0 3 14 0 l25 -6
-24 26 c-14 14 -26 26 -28 26 -2 0 -3 -33 -1 -72z"/>
<path d="M4155 2554 c-27 -24 -55 -44 -62 -44 -7 0 -30 9 -51 20 l-37 20 -3
-25 c-6 -45 12 -55 102 -55 44 0 87 4 94 9 9 5 12 26 10 63 l-3 56 -50 -44z"/>
<path d="M2556 2553 c-6 -14 -5 -15 5 -6 7 7 10 15 7 18 -3 3 -9 -2 -12 -12z"/>
<path d="M3918 2533 c-9 -10 -19 -28 -22 -40 -7 -20 -4 -23 23 -23 35 0 71 30
71 60 0 26 -50 28 -72 3z"/>
<path d="M2416 2395 c-27 -25 -46 -45 -41 -45 5 0 4 -5 -3 -12 -7 -7 -12 -39
-12 -75 l0 -63 74 0 c41 0 78 5 81 10 3 6 19 10 35 10 l28 0 -5 78 c-3 42 -10
85 -15 96 -7 13 -7 16 1 12 7 -4 9 -1 5 8 -4 11 -18 15 -50 13 -24 -1 -45 1
-46 5 -2 5 -25 -12 -52 -37z"/>
<path d="M410 1925 l0 -505 115 0 115 0 0 505 0 505 -115 0 -115 0 0 -505z"/>
<path d="M660 1925 l0 -505 110 0 109 0 3 273 c2 149 2 377 0 505 l-2 232
-110 0 -110 0 0 -505z"/>
<path d="M900 1925 l0 -505 86 0 c78 0 85 2 79 18 -17 43 -27 125 -21 166 4
25 23 76 41 114 l35 67 0 323 0 322 -110 0 -110 0 0 -505z"/>
<path d="M1140 2315 l0 -115 113 0 112 0 0 115 0 115 -112 0 -113 0 0 -115z"/>
<path d="M1400 2315 l0 -115 105 0 105 0 0 115 0 115 -105 0 -105 0 0 -115z
m57 73 c-3 -8 -6 -5 -6 6 -1 11 2 17 5 13 3 -3 4 -12 1 -19z"/>
<path d="M1640 2315 l0 -115 105 0 105 0 0 115 0 115 -105 0 -105 0 0 -115z"/>
<path d="M1880 2315 l0 -115 105 0 105 0 0 115 0 115 -105 0 -105 0 0 -115z"/>
<path d="M2120 2310 l0 -121 38 7 c28 4 53 22 102 71 59 59 65 69 62 100 -4
29 -6 32 -20 21 -14 -12 -14 -11 -2 9 8 12 18 19 22 17 4 -3 8 0 8 5 0 7 -38
11 -105 11 l-105 0 0 -120z"/>
<path d="M2360 2404 c0 -14 4 -23 10 -19 6 4 8 11 5 16 -4 5 4 13 17 18 23 10
22 10 -4 10 -24 1 -28 -3 -28 -25z"/>
<path d="M2653 2414 c24 -13 27 -18 15 -32 -11 -13 -11 -15 2 -7 12 7 13 6 3
-6 -9 -12 -3 -24 32 -64 23 -28 49 -50 56 -50 8 0 14 -5 14 -11 0 -6 8 -18 18
-28 16 -17 17 -12 17 98 l0 116 -92 0 c-89 -1 -92 -1 -65 -16z"/>
<path d="M2840 2316 l0 -115 105 1 105 0 0 114 0 114 -105 0 -105 0 0 -114z"/>
<path d="M3080 2315 l0 -115 105 0 105 0 0 115 0 115 -105 0 -105 0 0 -115z"/>
<path d="M3310 2315 l0 -115 105 0 105 0 0 115 0 115 -105 0 -105 0 0 -115z"/>
<path d="M3550 2315 l0 -115 100 0 100 0 0 115 0 115 -100 0 -100 0 0 -115z"/>
<path d="M3780 2318 l0 -118 105 0 c58 0 105 2 105 4 0 2 -20 16 -44 30 -52
31 -116 101 -145 159 l-21 42 0 -117z"/>
<path d="M3926 2421 c5 -5 21 -13 37 -16 21 -6 27 -4 27 9 0 12 -10 16 -37 16
-23 0 -33 -4 -27 -9z"/>
<path d="M4000 2414 c0 -14 7 -15 41 -10 36 6 44 3 72 -24 17 -17 45 -34 62
-38 28 -8 30 -6 33 21 6 53 -19 67 -120 67 -75 0 -88 -2 -88 -16z"/>
<path d="M4565 2390 c-10 -23 -38 -61 -61 -86 l-42 -46 -2 -316 c-1 -175 -2
-363 -1 -419 l1 -103 110 0 110 0 0 505 0 505 -48 0 c-47 0 -50 -1 -67 -40z"/>
<path d="M4320 2405 c-14 -8 -40 -14 -57 -15 -30 0 -33 -3 -33 -30 0 -23 4
-30 20 -30 51 0 110 42 110 79 0 14 -10 13 -40 -4z"/>
<path d="M2600 2284 l0 -79 83 -1 82 -2 -78 77 c-43 42 -80 78 -82 80 -3 2 -5
-31 -5 -75z"/>
<path d="M2278 2255 c-56 -55 -56 -55 -27 -55 17 0 28 4 25 9 -7 11 22 23 35
16 4 -3 11 7 14 22 11 49 13 63 12 63 -1 0 -27 -25 -59 -55z"/>
<path d="M4365 2204 c-38 -19 -79 -34 -90 -34 -11 0 -25 -4 -31 -8 -13 -8 -25
-471 -16 -639 l5 -103 103 0 104 0 0 410 c0 226 -1 410 -2 409 -2 0 -34 -16
-73 -35z"/>
<path d="M4007 2017 c-4 -99 -7 -274 -7 -389 l0 -208 105 0 105 0 0 370 0 370
-39 0 c-22 0 -66 8 -99 18 l-59 19 -6 -180z"/>
<path d="M1141 1990 l-2 -181 45 35 c43 32 100 58 157 70 20 4 26 11 24 28 -1
13 -3 69 -4 126 l-1 102 -108 0 -109 0 -2 -180z"/>
<path d="M1428 2162 l-27 -3 -3 -110 -3 -109 108 0 107 0 0 113 0 114 -77 -1
c-43 0 -90 -2 -105 -4z"/>
<path d="M2080 2166 c-3 -2 -49 -6 -101 -7 l-96 -1 -7 -82 c-9 -118 -8 -194 3
-177 5 8 7 20 4 26 -3 8 9 14 31 17 46 5 45 -7 -2 -57 -35 -38 -37 -44 -41
-117 l-3 -78 112 0 111 0 -3 125 c-2 69 0 125 3 125 10 0 -2 94 -14 105 -7 7
-8 6 -4 -1 4 -7 0 -17 -8 -24 -8 -7 -15 -9 -15 -5 0 4 -16 -7 -35 -24 -59 -52
-61 -35 -4 28 79 86 81 89 77 122 -2 17 -5 28 -8 25z"/>
<path d="M2120 2148 c0 -20 1 -21 20 -3 11 10 20 20 20 22 0 1 -9 3 -20 3 -14
0 -20 -7 -20 -22z"/>
<path d="M2163 2128 c-47 -49 -45 -36 -44 -313 l1 -130 102 3 c57 2 104 5 106
6 3 4 3 458 0 462 -2 1 -30 5 -63 9 l-60 7 -42 -44z"/>
<path d="M3039 2166 c-2 -2 -42 -7 -89 -9 -47 -3 -86 -6 -88 -6 -9 -2 91 -121
101 -121 7 0 29 -14 50 -31 l37 -30 0 100 c0 96 -1 106 -11 97z"/>
<path d="M3413 2163 l-103 -4 0 -231 0 -232 105 -105 105 -105 0 342 c0 188
-1 341 -2 340 -2 -1 -49 -4 -105 -5z"/>
<path d="M3648 2162 l-98 -3 0 -67 c0 -37 -3 -190 -7 -340 l-6 -273 28 -29
c27 -28 33 -30 107 -30 l77 0 3 263 c2 144 1 312 -2 372 l-5 110 -97 -3z"/>
<path d="M3780 2065 c0 -55 -3 -223 -6 -372 l-6 -273 111 0 111 0 -4 343 c-2
188 -5 357 -5 375 l-1 34 -100 -4 -100 -3 0 -100z"/>
<path d="M1638 2050 l-3 -110 110 0 110 0 -3 110 -3 110 -104 0 -104 0 -3
-110z"/>
<path d="M2358 2050 c-2 -61 -1 -110 2 -110 3 0 2 -35 -2 -77 -3 -43 -7 -99
-7 -125 l-1 -48 109 0 108 0 5 158 c3 87 3 193 0 235 l-5 77 -103 0 -103 0 -3
-110z"/>
<path d="M2600 2053 c0 -60 -2 -165 -4 -235 l-5 -128 110 0 109 0 2 123 c0 67
1 142 2 167 0 25 -1 75 -2 113 l-2 67 -105 0 -105 0 0 -107z"/>
<path d="M3076 2106 c-13 -100 -5 -165 23 -200 27 -33 181 -186 187 -186 2 0
4 99 4 220 l0 220 -104 0 -104 0 -6 -54z"/>
<path d="M2848 2039 c3 -53 1 -74 -9 -81 -9 -6 -10 -11 -3 -14 6 -3 10 -15 8
-27 -2 -12 -5 -68 -8 -124 l-4 -103 110 0 110 0 -4 118 -3 118 -94 90 c-51 49
-96 90 -100 92 -4 1 -5 -30 -3 -69z"/>
<path d="M1464 1914 c38 -9 87 -24 108 -35 l38 -19 0 35 0 35 -107 -1 -108 -1
69 -14z"/>
<path d="M1640 1888 c1 -37 7 -50 46 -92 l45 -49 60 59 c48 48 59 64 59 91 l0
33 -105 0 -105 0 0 -42z"/>
<path d="M1305 1877 c-68 -23 -101 -44 -148 -97 -64 -71 -90 -145 -85 -235 3
-39 13 -86 22 -105 29 -56 85 -107 144 -131 l54 -22 -34 -18 c-55 -28 -290
-120 -295 -116 -6 7 56 42 110 62 l47 18 0 61 c0 35 -5 67 -12 74 -8 8 -47 12
-110 12 l-98 0 0 -100 c0 -60 -4 -100 -10 -100 -6 0 -10 40 -10 100 l0 100
-110 0 -110 0 0 -42 c-1 -51 -11 -151 -16 -157 -2 -2 -4 41 -4 97 l0 102 -115
0 -115 0 0 -474 0 -475 108 110 c59 61 110 120 114 132 3 12 6 66 7 119 l1 97
-113 4 -112 3 112 2 112 2 4 138 3 137 2 -138 2 -138 113 3 112 3 3 128 c3
162 22 171 22 10 l0 -117 34 33 c22 21 41 31 50 28 13 -5 9 -14 -21 -41 l-38
-35 97 -1 97 0 4 38 4 37 1 -37 2 -37 93 -4 92 -3 -92 -2 -93 -2 0 -250 0
-250 120 0 121 0 -1 253 c-2 412 -1 439 10 432 6 -4 9 -41 8 -91 l-3 -84 113
0 112 0 0 169 c0 100 4 172 10 176 6 4 9 -57 7 -170 l-2 -175 113 0 112 0 0
130 c0 80 4 130 10 130 6 0 10 -50 10 -130 l0 -129 108 -4 107 -3 -107 -2
-108 -2 0 -250 0 -250 113 0 112 0 -2 392 c-2 216 -3 437 -3 491 l0 97 -110 0
-110 0 0 -100 c0 -60 -4 -100 -10 -100 -6 0 -10 40 -10 101 l0 101 -78 -4 -79
-3 26 55 c35 75 36 191 2 267 -28 64 -94 126 -169 161 -68 31 -184 39 -247 19z
m171 -186 c107 -49 94 -211 -22 -263 -36 -15 -51 -17 -82 -9 -86 24 -125 116
-84 197 44 86 107 112 188 75z"/>
<path d="M1333 1638 c-23 -26 -41 -81 -35 -115 4 -24 45 -73 62 -73 6 0 10 38
10 105 0 58 -4 105 -8 105 -5 0 -18 -10 -29 -22z"/>
<path d="M1392 1550 c-4 -104 -3 -110 16 -110 10 0 43 25 71 55 48 50 52 58
45 88 -13 60 -31 77 -83 77 l-46 0 -3 -110z"/>
<path d="M3070 1785 l0 -95 100 0 100 0 -95 95 c-52 52 -97 95 -100 95 -3 0
-5 -43 -5 -95z"/>
<path d="M1791 1766 c-29 -30 -50 -59 -47 -65 8 -13 106 -15 106 -2 0 5 -7 11
-15 15 -18 6 -20 52 -3 62 6 4 8 3 5 -4 -4 -5 -3 -21 2 -34 8 -19 10 -14 10
30 1 28 0 52 -2 52 -1 0 -27 -24 -56 -54z"/>
<path d="M1768 1590 c2 -42 -2 -90 -11 -120 l-15 -50 54 0 54 0 0 120 0 120
-42 0 -43 0 3 -70z"/>
<path d="M1870 1540 l0 -120 110 0 110 0 0 120 0 120 -110 0 -110 0 0 -120z"/>
<path d="M2120 1540 l0 -120 105 0 105 0 0 120 0 120 -105 0 -105 0 0 -120z"/>
<path d="M2350 1540 l0 -120 110 0 110 0 0 120 0 120 -110 0 -110 0 0 -120z"/>
<path d="M2590 1540 l0 -120 110 0 110 0 0 120 0 120 -110 0 -110 0 0 -120z"/>
<path d="M2838 1623 c-3 -21 -6 -75 -7 -120 l-2 -83 110 0 111 0 0 120 0 120
-104 0 -104 0 -4 -37z"/>
<path d="M3070 1539 l0 -119 110 0 110 0 0 120 0 121 -110 -2 -110 -1 0 -119z"/>
<path d="M3310 1531 l0 -111 105 0 c64 0 105 4 105 10 0 13 -145 165 -182 192
l-28 19 0 -110z"/>
<path d="M3540 1285 c0 -63 -4 -105 -10 -105 -6 0 -10 40 -10 100 l0 100 -105
0 -105 0 0 -100 c0 -60 -4 -100 -10 -100 -6 0 -10 40 -10 100 l0 100 -110 0
-110 0 0 -100 c0 -60 -4 -100 -10 -100 -6 0 -10 40 -10 100 l0 100 -110 0
-110 0 0 -100 c0 -60 -4 -100 -10 -100 -6 0 -10 40 -10 100 l0 100 -110 0
-110 0 0 -235 0 -235 110 0 110 0 0 130 c0 80 4 130 10 130 6 0 10 -50 10
-130 l0 -130 110 0 110 0 0 130 c0 80 4 130 10 130 6 0 10 -50 10 -130 l0
-130 110 0 109 0 4 133 3 132 2 -132 2 -133 110 0 110 0 0 130 c0 80 4 130 10
130 6 0 10 -50 10 -130 l0 -130 110 0 110 0 0 140 c0 102 -4 148 -14 168 -18
35 -170 172 -190 172 -14 0 -16 -16 -16 -105z"/>
<path d="M2118 1273 c-2 -60 -2 -165 0 -235 l3 -128 104 0 104 0 3 133 c2 72
2 178 0 235 l-3 102 -104 0 -104 0 -3 -107z"/>
<path d="M2350 1145 l0 -235 109 0 110 0 3 133 c2 72 2 178 0 235 l-3 102
-109 0 -110 0 0 -235z"/>
<path d="M3661 1344 c18 -20 46 -45 62 -56 l27 -19 0 55 0 56 -62 0 -62 0 35
-36z"/>
<path d="M3770 1319 c0 -78 9 -91 150 -215 l55 -48 3 52 c4 71 22 66 22 -7 l0
-59 72 -71 c57 -56 79 -71 103 -71 27 -1 28 -2 13 -14 -17 -12 -17 -14 2 -31
20 -18 20 -17 20 253 l0 272 -105 0 -105 0 0 -100 c0 -60 -4 -100 -10 -100 -6
0 -10 40 -10 100 l0 100 -105 0 -105 0 0 -61z"/>
<path d="M4227 1373 c-3 -5 -6 -112 -6 -240 l-2 -232 38 -4 38 -4 -37 -1 c-35
-2 -38 -4 -38 -31 0 -24 18 -46 101 -125 56 -53 105 -96 110 -96 5 0 9 157 9
370 l0 370 -104 0 c-58 0 -107 -3 -109 -7z"/>
<path d="M4455 1178 c-3 -112 -5 -286 -3 -387 l3 -183 113 -106 112 -105 0
492 0 491 -109 0 -109 0 -7 -202z"/>
<path d="M1140 1285 c0 -25 2 -45 5 -45 3 0 24 9 47 21 l41 21 -43 24 c-23 13
-44 24 -46 24 -2 0 -4 -20 -4 -45z"/>
<path d="M3770 1050 l0 -139 58 -4 57 -3 -57 -2 -58 -2 0 -125 0 -125 105 0
105 0 0 124 0 125 -42 4 -43 4 43 1 42 2 0 48 c0 46 -2 49 -91 140 -50 50 -97
92 -105 92 -11 0 -14 -26 -14 -140z"/>
<path d="M4000 820 l0 -170 105 0 105 0 -1 58 c0 31 -3 64 -7 73 -9 20 -184
209 -194 209 -5 0 -8 -76 -8 -170z"/>
<path d="M906 878 c-13 -19 -16 -60 -16 -250 l0 -228 113 0 112 0 0 250 0 250
-97 0 c-89 0 -98 -2 -112 -22z"/>
<path d="M1387 893 c-4 -3 -7 -116 -7 -250 l0 -243 115 0 115 0 0 250 0 250
-108 0 c-60 0 -112 -3 -115 -7z"/>
<path d="M1627 893 c-4 -3 -7 -116 -7 -250 l0 -243 115 0 115 0 0 250 0 250
-108 0 c-60 0 -112 -3 -115 -7z"/>
<path d="M2120 793 c0 -60 -3 -172 -7 -251 l-6 -142 114 0 114 0 -3 250 -3
250 -104 0 -105 0 0 -107z"/>
<path d="M2350 650 l0 -250 110 0 110 0 0 250 0 250 -110 0 -110 0 0 -250z"/>
<path d="M2590 650 l0 -250 113 0 112 0 -3 250 -3 250 -109 0 -110 0 0 -250z"/>
<path d="M2830 650 l0 -250 110 0 110 0 0 250 0 250 -110 0 -110 0 0 -250z"/>
<path d="M3070 650 l0 -250 110 0 110 0 0 250 0 250 -110 0 -110 0 0 -250z"/>
<path d="M3300 650 l0 -250 110 0 110 0 0 250 0 250 -110 0 -110 0 0 -250z"/>
<path d="M3540 650 l0 -250 111 0 111 0 -4 248 -3 247 -107 3 -108 3 0 -251z"/>
<path d="M650 783 l0 -108 105 105 c58 58 105 106 105 107 0 2 -47 3 -105 3
l-105 0 0 -107z"/>
<path d="M763 741 l-113 -108 0 -117 0 -116 115 0 115 0 0 225 c0 124 -1 225
-2 225 -2 0 -54 -49 -115 -109z"/>
<path d="M4220 715 l0 -65 72 0 72 0 -54 56 c-86 87 -90 87 -90 9z"/>
<path d="M3770 520 l0 -120 105 0 105 0 0 120 0 120 -105 0 -105 0 0 -120z"/>
<path d="M4000 520 l0 -120 105 0 105 0 0 120 0 120 -105 0 -105 0 0 -120z"/>
<path d="M4220 520 l0 -120 110 0 110 0 0 73 c0 44 -6 82 -15 97 -8 14 -17 32
-21 40 -13 26 -27 30 -106 30 l-78 0 0 -120z"/>
<path d="M520 505 l-105 -105 108 0 107 0 0 105 c0 58 -1 105 -3 105 -1 0 -49
-47 -107 -105z"/>
<path d="M4450 487 l0 -87 92 0 c77 0 90 2 78 13 -8 7 -50 46 -92 87 l-78 73
0 -86z"/>
</g>
</svg>
